<svg xmlns="http://www.w3.org/2000/svg" viewBox="0 0 512 512" role="img" aria-label="Viaje">
  <defs>
    <linearGradient id="g" x1="0" y1="0" x2="1" y2="1">
      <stop offset="0" stop-color="#cb7950"/>
      <stop offset="1" stop-color="#883c24"/>
    </linearGradient>
  </defs>
  <rect width="512" height="512" rx="112" fill="url(#g)"/>
  <!-- Acacia tree + sun: safari mark -->
  <circle cx="256" cy="180" r="58" fill="#f4ddd1" opacity="0.95"/>
  <path fill="#3a452c" d="M250 300V214h12v86h-12Z"/>
  <path fill="#3a452c" d="M256 150c-52 0-96 26-96 52 0 10 8 16 20 16 14 0 22-10 40-10s26 10 36 10 18-10 36-10 26 10 40 10c12 0 20-6 20-16 0-26-44-52-96-52Z"/>
  <path fill="#3a452c" d="M150 318h212v14H150z"/>
</svg>
